#!OML:ASF I:\Actors\actors\Patient Classification 2\Patient 1\Session 1\actor1.ASF
:FULLY-SPECIFIED
:DEGREES
312
root -0.974379 17.9736 6.02586 -3.29006 -4.80766 -5.11944
lowerback 2.16301 0.713404 9.34872
upperback -2.83047 1.44731 3.09588
thorax -4.03139 0.485175 -2.08651
lowerneck -20.2792 0.536271 4.46792
upperneck 31.5511 -1.15702 0.680227
head 14.1993 0.149874 -0.701345
rclavicle 5.96354e-016 -3.73715e-014
rhumerus 89.7835 52.0893 9.04453
rradius 115.788
rwrist -14.1602
rhand 18.9406 0.594126
rfingers 7.12502
rthumb 43.547 -23.4557
lclavicle 5.96354e-016 -3.73715e-014
lhumerus 44.7548 6.3338 13.1933
lradius 104.415
lwrist 22.4213
lhand -12.3222 -29.383
lfingers 7.12502
lthumb 13.7465 0.142944
rfemur 0 0 0
rtibia 0
rfoot 0 0
rtoes 0
lfemur 24.7221 -3.69867 -11.8186
ltibia -21.0466
lfoot -3.90368 18.8015
ltoes -9.67223
313
root -0.970973 17.9719 6.02398 -3.36287 -4.97565 -5.11513
lowerback 2.1939 0.712235 9.41547
upperback -2.80603 1.44938 3.07223
thorax -4.02144 0.484751 -2.14842
lowerneck -20.0326 0.527812 4.54905
upperneck 31.4376 -1.194 0.715115
head 14.0951 0.144473 -0.707016
rclavicle -8.15017e-015 -2.46493e-014
rhumerus 89.4372 51.0059 7.50882
rradius 115.237
rwrist -12.5351
rhand 17.0697 2.80074
rfingers 7.12502
rthumb 41.7962 -21.8572
lclavicle -8.15017e-015 -2.46493e-014
lhumerus 44.7341 6.17663 13.3732
lradius 104.607
lwrist 22.5379
lhand -12.4617 -29.4631
lfingers 7.12502
lthumb 13.612 0.0718779
rfemur 0 0 0
rtibia 0
rfoot 0 0
rtoes 0
lfemur 24.845 -3.59422 -11.8423
ltibia -21.045
lfoot -3.95708 18.8691
ltoes -9.56384
314
root -0.967516 17.9689 6.02235 -3.46075 -5.17201 -5.14199
lowerback 2.29702 0.72623 9.49637
upperback -2.76391 1.48076 3.06804
thorax -4.03114 0.49842 -2.20052
lowerneck -19.9093 0.513855 4.66451
upperneck 31.3722 -1.26092 0.750644
head 14.0387 0.132178 -0.723935
rclavicle -3.27995e-015 -4.6118e-014
rhumerus 89.3761 49.9431 6.20949
rradius 114.548
rwrist -11.7026
rhand 12.634 3.38863
rfingers 7.12502
rthumb 37.6201 -22.513
lclavicle -3.27995e-015 -4.6118e-014
lhumerus 44.7388 5.98915 13.7118
lradius 104.773
lwrist 22.4868
lhand -12.5316 -29.5343
lfingers 7.12502
lthumb 13.5447 0.00518485
rfemur 0 0 0
rtibia 0
rfoot 0 0
rtoes 0
lfemur 25.0041 -3.5556 -11.8413
ltibia -21.0566
lfoot -4.03587 19.0174
ltoes -9.41729
315
root -0.965002 17.9672 6.02129 -3.55206 -5.404 -5.1865
lowerback 2.40251 0.757596 9.57425
upperback -2.71653 1.53528 3.06826
thorax -4.03416 0.524119 -2.24768
lowerneck -19.9086 0.48405 4.76703
upperneck 31.4468 -1.37989 0.844157
head 14.0707 0.108307 -0.725062
rclavicle -7.45443e-015 -1.43125e-014
rhumerus 89.4714 48.9473 5.07622
rradius 113.797
rwrist -11.5114
rhand 7.11104 2.1854
rfingers 7.12502
rthumb 32.3814 -24.9433
lclavicle -7.45443e-015 -1.43125e-014
lhumerus 44.7073 5.83343 14.0111
lradius 104.969
lwrist 22.5125
lhand -12.5654 -29.644
lfingers 7.12502
lthumb 13.5121 -0.102372
rfemur 0 0 0
rtibia 0
rfoot 0 0
rtoes 0
lfemur 25.1786 -3.56631 -11.8358
ltibia -21.0678
lfoot -4.13425 19.2258
ltoes -9.35803
316
root -0.963433 17.9667 6.02026 -3.62396 -5.62277 -5.19536
lowerback 2.45407 0.799699 9.59552
upperback -2.6911 1.59605 3.054
thorax -4.02926 0.554144 -2.27827
lowerneck -19.8555 0.432363 4.81426
upperneck 31.6468 -1.54225 1.02189
head 14.1474 0.074177 -0.690466
rclavicle -1.03368e-014 7.15625e-015
rhumerus 89.6368 48.1149 4.04748
rradius 112.979
rwrist -11.7676
rhand 0.903647 -0.0164065
rfingers 7.12502
rthumb 26.4556 -28.1899
lclavicle -1.03368e-014 7.15625e-015
lhumerus 44.5469 5.67658 14.1821
lradius 105.259
lwrist 22.6401
lhand -12.7372 -29.811
lfingers 7.12502
lthumb 13.3465 -0.25842
rfemur 0 0 0
rtibia 0
rfoot 0 0
rtoes 0
lfemur 25.3315 -3.58836 -11.8727
ltibia -21.0717
lfoot -4.23625 19.4351
ltoes -9.32759
317
root -0.961297 17.9651 6.01863 -3.6854 -5.8216 -5.17794
lowerback 2.49092 0.865567 9.60039
upperback -2.67663 1.68633 3.02782
thorax -4.02411 0.598813 -2.31362
lowerneck -19.7229 0.378871 4.90716
upperneck 31.8217 -1.67799 1.08809
head 14.1943 0.0402277 -0.70365
rclavicle 1.19271e-015 5.40694e-014
rhumerus 89.687 47.6427 2.97679
rradius 112.053
rwrist -12.2073
rhand -4.75968 -2.80215
rfingers 7.12502
rthumb 21.0243 -31.6825
lclavicle 1.19271e-015 5.40694e-014
lhumerus 44.4139 5.45563 14.3859
lradius 105.505
lwrist 22.7133
lhand -12.9092 -29.9797
lfingers 7.12502
lthumb 13.1807 -0.416357
rfemur 0 0 0
rtibia 0
rfoot 0 0
rtoes 0
lfemur 25.4499 -3.60695 -11.9338
ltibia -21.063
lfoot -4.35029 19.6372
ltoes -9.19271
318
root -0.958249 17.9636 6.01729 -3.72832 -5.99425 -5.18029
lowerback 2.51929 0.937968 9.64408
upperback -2.65243 1.78526 3.00608
thorax -4.00219 0.647661 -2.36594
lowerneck -19.6488 0.335807 4.96685
upperneck 31.9688 -1.77698 1.1216
head 14.242 0.0132959 -0.717917
rclavicle -5.56597e-015 -5.00937e-014
rhumerus 89.6789 47.5458 1.86045
rradius 111.02
rwrist -12.754
rhand -8.27835 -6.15485
rfingers 7.12502
rthumb 17.641 -35.3746
lclavicle -5.56597e-015 -5.00937e-014
lhumerus 44.3598 5.22563 14.5838
lradius 105.639
lwrist 22.8518
lhand -12.819 -30.1433
lfingers 7.12502
lthumb 13.2676 -0.585597
rfemur 0 0 0
rtibia 0
rfoot 0 0
rtoes 0
lfemur 25.5398 -3.61943 -11.9742
ltibia -21.0375
lfoot -4.44899 19.7908
ltoes -9.10323
319
root -0.955792 17.9619 6.0161 -3.74596 -6.12628 -5.20142
lowerback 2.51375 1.00237 9.67873
upperback -2.62183 1.86883 3.00072
thorax -3.95646 0.690651 -2.39459
lowerneck -19.6225 0.314866 4.96597
upperneck 32.0974 -1.83314 1.18285
head 14.2938 0.00138027 -0.702995
rclavicle 1.49089e-014 1.03368e-014
rhumerus 89.7636 47.6768 0.96841
rradius 110.004
rwrist -13.7953
rhand -10.4937 -10.0148
rfingers 7.12502
rthumb 15.5082 -39.4129
lclavicle 1.49089e-014 1.03368e-014
lhumerus 44.3698 5.00988 14.7259
lradius 105.707
lwrist 23.0086
lhand -12.7175 -30.1241
lfingers 7.12502
lthumb 13.3655 -0.5728
rfemur 0 0 0
rtibia 0
rfoot 0 0
rtoes 0
lfemur 25.5931 -3.73785 -12.0114
ltibia -21.0072
lfoot -4.58539 19.9936
ltoes -8.7263
